<svg width="18" height="18" viewBox="0 0 18 18" fill="none" xmlns="http://www.w3.org/2000/svg">
<g id="Communicate/topic">
<g id="&#232;&#175;&#157;&#233;&#162;&#152;">
<g id="&#231;&#188;&#150;&#231;&#187;&#132;">
<path id="Vector" d="M12.8003 12.531L7.37297 13.4697C6.78199 13.5542 6.07668 13.1037 6.07668 12.4879C6.07668 12.1299 6.06967 10.7332 6.06967 10.5407V5.70942C6.06961 5.53522 6.13012 5.36643 6.2408 5.23208C6.35148 5.09773 6.50542 5.0062 6.67616 4.97322L12.8536 4.54133C12.8946 4.5348 12.9319 4.5138 12.9587 4.48212C12.9856 4.45044 13.0002 4.41018 13 4.36862V3.46974C13.0003 3.40832 12.9884 3.34744 12.9652 3.29059C12.942 3.23374 12.9078 3.18203 12.8647 3.13841C12.8215 3.09479 12.7702 3.06012 12.7136 3.03637C12.6571 3.01262 12.5964 3.00026 12.5351 3H4.46513C4.4038 3.00023 4.34311 3.01256 4.28654 3.0363C4.22997 3.06003 4.17861 3.0947 4.13542 3.13833C4.09223 3.18195 4.05804 3.23367 4.0348 3.29054C4.01156 3.3474 3.99974 3.4083 4 3.46974V14.5305C3.99977 14.5919 4.01162 14.6528 4.03487 14.7096C4.05812 14.7665 4.09232 14.8182 4.13551 14.8618C4.1787 14.9054 4.23004 14.94 4.2866 14.9637C4.34315 14.9874 4.40382 14.9998 4.46513 15H12.5351C12.6589 14.9995 12.7774 14.9497 12.8646 14.8617C12.9518 14.7736 13.0005 14.6545 13 14.5305V12.7037C13.0001 12.6786 12.9948 12.6537 12.9844 12.6309C12.974 12.608 12.9588 12.5877 12.9398 12.5713C12.9209 12.5549 12.8986 12.5428 12.8745 12.5358C12.8504 12.5289 12.8251 12.5272 12.8003 12.531Z" fill="white"/>
<path id="Vector_2" d="M13.2831 5.00042C13.2046 4.99865 13.1262 5.00253 13.0482 5.01205L12.8999 5.02508L12.7227 5.04143L12.52 5.06111L12.2953 5.083C12.2144 5.09076 12.134 5.09907 12.0532 5.10711L11.7978 5.13261C11.7089 5.14175 11.6196 5.15062 11.531 5.16032L11.2564 5.18803L10.979 5.21575L10.7022 5.24346L10.4291 5.27117C10.3405 5.2806 10.2521 5.29002 10.1633 5.29889L9.90864 5.3266L9.66925 5.35182L9.44833 5.37538L9.24863 5.39644L9.07539 5.41501L8.93185 5.43025C8.836 5.4405 8.73864 5.44521 8.64403 5.46461C8.52974 5.48757 8.42154 5.53873 8.32744 5.61433C8.23334 5.68992 8.15573 5.78802 8.10035 5.90137C8.04722 6.00941 8.01484 6.12849 8.00524 6.25111C8.00349 6.27495 8 6.29906 8 6.32511V12.1224C8.00008 12.3189 8.05911 12.5097 8.16775 12.6648C8.27499 12.817 8.42468 12.9254 8.59336 12.973C8.82926 13.0389 9.07963 12.9683 9.31453 12.9297C9.35122 12.9234 9.38817 12.9175 9.42486 12.9117C9.74571 12.86 10.0666 12.8073 10.3874 12.7538C10.7624 12.6909 11.1368 12.6273 11.5107 12.5628C11.8527 12.5041 12.1947 12.4451 12.5367 12.386C12.7594 12.3472 12.9823 12.309 13.2047 12.2696C13.4271 12.2302 13.6203 12.1732 13.7788 11.9886C13.9204 11.8246 13.9996 11.6063 14 11.3792V5.86701C14.0001 5.66619 13.9377 5.47149 13.8234 5.31585C13.7091 5.16021 13.5499 5.05319 13.3727 5.01289C13.3432 5.0056 13.3132 5.00142 13.2831 5.00042ZM10.4458 9.37578C10.3245 9.40156 9.4321 9.60525 9.4321 9.60525C9.28957 9.63934 9.15751 9.66539 9.02346 9.59943C8.90564 9.54151 8.82177 9.43564 8.7988 9.31371C8.75961 9.08036 8.93809 8.85838 9.18422 8.82457H9.19646L10.3447 8.66494C10.525 8.64111 10.6892 8.77579 10.7139 8.9648C10.7253 9.05841 10.7038 9.15329 10.6539 9.22979C10.604 9.30629 10.5295 9.35856 10.4458 9.37578Z" fill="white"/>
</g>
</g>
</g>
</svg>
