<svg width="18" height="19" viewBox="0 0 18 19" fill="none" xmlns="http://www.w3.org/2000/svg">
<g id="Money/dollar">
<path id="s" d="M8.60024 15.0177C7.12762 15.0177 5.69324 14.3866 4.71786 13.5833L5.57849 12.4167C6.47737 13.1435 7.39537 13.6598 8.63849 13.6598C10.0155 13.6598 10.704 12.9331 10.704 12.0151C10.704 10.9632 9.46087 10.4851 8.31336 10.0643C6.87899 9.50971 5.29162 8.82121 5.29162 7.04258C5.29162 5.39783 6.61124 4.11646 8.86799 4.11646C10.1494 4.11646 11.2969 4.63283 12.1001 5.28308L11.2586 6.39233C10.551 5.87596 9.80512 5.47433 8.88712 5.47433C7.56749 5.47433 6.97461 6.16283 6.97461 6.96608C6.97461 7.96058 8.02649 8.34308 9.21224 8.76383C10.7231 9.33758 12.3679 9.94958 12.3679 11.9195C12.3679 13.6216 11.0482 15.0177 8.60024 15.0177Z" fill="#727272"/>
<path id="&#232;&#183;&#175;&#229;&#190;&#132; 5" d="M8.625 3.125V4.25" stroke="#727272" stroke-width="1.5" stroke-linecap="square" stroke-linejoin="round"/>
<path id="&#232;&#183;&#175;&#229;&#190;&#132; 6" d="M8.625 14.75V15.875" stroke="#727272" stroke-width="1.5" stroke-linecap="square" stroke-linejoin="round"/>
</g>
</svg>
