<svg width="18" height="18" viewBox="0 0 18 18" fill="none" xmlns="http://www.w3.org/2000/svg">
<rect width="18" height="18" fill="#1E1E1E"/>
<g id="mb-Encore single page-01.2-open official post popup" clip-path="url(#clip0_0_1)">
<rect width="414" height="1814" transform="translate(-16 -593)" fill="#FAFAFA"/>
<g id="Group 4105">
<g id="Rectangle 6" filter="url(#filter0_d_0_1)">
<rect x="-16" y="-459" width="414" height="1638" fill="white"/>
</g>
<g id="Frame 84">
<g id="Group 4098">
<g id="Others/local-two" clip-path="url(#clip1_0_1)">
<path id="Vector" d="M9 16.5C9 16.5 14.625 12 14.625 7.125C14.625 4.01839 12.1066 1.5 9 1.5C5.89339 1.5 3.375 4.01839 3.375 7.125C3.375 12 9 16.5 9 16.5Z" fill="#727272" stroke="#727272" stroke-width="2" stroke-linejoin="round"/>
<path id="Vector_2" d="M9 9.375C10.2426 9.375 11.25 8.36764 11.25 7.125C11.25 5.88236 10.2426 4.875 9 4.875C7.75736 4.875 6.75 5.88236 6.75 7.125C6.75 8.36764 7.75736 9.375 9 9.375Z" fill="#727272" stroke="white" stroke-width="2" stroke-linejoin="round"/>
</g>
</g>
</g>
</g>
</g>
<defs>
<filter id="filter0_d_0_1" x="-23" y="-466" width="432" height="1656" filterUnits="userSpaceOnUse" color-interpolation-filters="sRGB">
<feFlood flood-opacity="0" result="BackgroundImageFix"/>
<feColorMatrix in="SourceAlpha" type="matrix" values="0 0 0 0 0 0 0 0 0 0 0 0 0 0 0 0 0 0 127 0" result="hardAlpha"/>
<feOffset dx="2" dy="2"/>
<feGaussianBlur stdDeviation="4.5"/>
<feComposite in2="hardAlpha" operator="out"/>
<feColorMatrix type="matrix" values="0 0 0 0 0 0 0 0 0 0 0 0 0 0 0 0 0 0 0.11 0"/>
<feBlend mode="normal" in2="BackgroundImageFix" result="effect1_dropShadow_0_1"/>
<feBlend mode="normal" in="SourceGraphic" in2="effect1_dropShadow_0_1" result="shape"/>
</filter>
<clipPath id="clip0_0_1">
<rect width="414" height="1814" fill="white" transform="translate(-16 -593)"/>
</clipPath>
<clipPath id="clip1_0_1">
<rect width="18" height="18" fill="white"/>
</clipPath>
</defs>
</svg>
