<svg xmlns="http://www.w3.org/2000/svg" width="141" height="28" viewBox="0 0 141 28" fill="none">
  <g clip-path="url(#clip0_7_2679)">
    <path d="M20.6458 22.2408L7.91308 24.4313C6.52663 24.6285 4.87194 23.5773 4.87194 22.1402C4.87194 21.3049 4.8555 18.0457 4.8555 17.5964V6.3225C4.85536 5.916 4.99732 5.52214 5.25698 5.20862C5.51664 4.89511 5.87779 4.68152 6.27834 4.60457L20.7709 3.59673C20.867 3.5815 20.9544 3.53249 21.0174 3.45857C21.0804 3.38464 21.1147 3.29069 21.1142 3.19372V1.09616C21.1149 0.952823 21.0871 0.81077 21.0327 0.67811C20.9782 0.54545 20.898 0.424781 20.7968 0.322993C20.6955 0.221205 20.5751 0.140291 20.4424 0.0848719C20.3098 0.0294527 20.1675 0.000613197 20.0236 0L1.0912 0C0.947317 0.000536567 0.804946 0.0293196 0.672225 0.0847045C0.539505 0.140089 0.419036 0.220991 0.317701 0.322787C0.216366 0.424582 0.136152 0.545277 0.0816416 0.677975C0.027131 0.810673 -0.000607791 0.952774 1.00999e-05 1.09616V26.9068C-0.000530496 27.0501 0.0272654 27.1921 0.0818106 27.3248C0.136356 27.4574 0.216582 27.578 0.317909 27.6798C0.419236 27.7815 0.539679 27.8623 0.672362 27.9177C0.805044 27.973 0.947367 28.0018 1.0912 28.0023H20.0236C20.314 28.0011 20.592 27.885 20.7965 27.6796C21.0011 27.4741 21.1153 27.1961 21.1142 26.9068V22.6438C21.1145 22.5852 21.102 22.5273 21.0776 22.4739C21.0533 22.4206 21.0176 22.3732 20.9731 22.3349C20.9286 22.2966 20.8763 22.2684 20.8198 22.2521C20.7633 22.2359 20.704 22.232 20.6458 22.2408Z" fill="#FF5050"/>
    <path d="M20.7954 5.21938C20.6109 5.21565 20.4264 5.22385 20.243 5.24395L19.8944 5.27144L19.4776 5.30595L19.001 5.34748L18.4727 5.39369C18.2825 5.41007 18.0935 5.42762 17.9033 5.44458L17.3029 5.49839C17.0939 5.5177 16.8838 5.53641 16.6754 5.55689L16.0297 5.61538L15.3776 5.67387L14.7266 5.73237L14.0845 5.79086C13.8761 5.81075 13.6683 5.83063 13.4593 5.84935L12.8606 5.90784L12.2977 5.96107L11.7782 6.01079L11.3086 6.05525L10.9013 6.09444L10.5638 6.12661C10.3384 6.14825 10.1094 6.15819 9.88697 6.19914C9.6182 6.24759 9.36379 6.35558 9.14251 6.51514C8.92123 6.6747 8.73875 6.88174 8.60852 7.12099C8.4836 7.34901 8.40745 7.60035 8.38489 7.85917C8.38078 7.90947 8.37256 7.96036 8.37256 8.01535V20.2515C8.37276 20.6661 8.51154 21.0689 8.76701 21.3962C9.01918 21.7174 9.37116 21.9462 9.76781 22.0466C10.3225 22.1859 10.9112 22.0367 11.4636 21.9554C11.5499 21.9419 11.6367 21.9297 11.723 21.9174C12.4775 21.8082 13.232 21.697 13.9864 21.584C14.8681 21.4514 15.7485 21.317 16.6278 21.1809C17.432 21.0569 18.2362 20.9325 19.0403 20.8078C19.5639 20.7259 20.0881 20.6451 20.6111 20.5621C21.1341 20.479 21.5884 20.3585 21.9611 19.969C22.294 19.6228 22.4803 19.1622 22.4812 18.6827V7.04846C22.4815 6.6246 22.3348 6.21366 22.066 5.88516C21.7972 5.55666 21.4228 5.33077 21.0061 5.2457C20.9369 5.23033 20.8663 5.22151 20.7954 5.21938ZM14.1238 14.4543C13.8385 14.5086 11.7401 14.9386 11.7401 14.9386C11.4049 15.0105 11.0944 15.0655 10.7792 14.9263C10.5021 14.804 10.3049 14.5806 10.2509 14.3232C10.1587 13.8307 10.5784 13.3622 11.1572 13.2908H11.186L13.8861 12.9539C14.3099 12.9036 14.6961 13.1879 14.7542 13.5868C14.7809 13.7844 14.7303 13.9846 14.613 14.1461C14.4957 14.3076 14.3205 14.4179 14.1238 14.4543Z" fill="#FF5050"/>
    <path d="M49.4618 19.4782C49.787 19.7151 49.8528 20.1755 49.5792 20.4673C48.8478 21.2339 47.9725 21.85 47.003 22.2806C45.8018 22.8302 44.4958 23.1147 43.1741 23.1147C41.9612 23.1219 40.7564 22.9186 39.6135 22.514C38.5511 22.134 37.5708 21.5562 36.725 20.8113C35.9117 20.0467 35.2599 19.1279 34.8079 18.1089C34.3383 17.063 34.1035 15.8947 34.1035 14.604C34.1035 13.3133 34.3383 12.145 34.8079 11.0991C35.254 10.0865 35.906 9.17714 36.7226 8.42831C37.5613 7.66581 38.543 7.07601 39.6111 6.69282C40.754 6.28824 41.9589 6.08496 43.1718 6.0921C44.3355 6.0921 45.3878 6.29234 46.3285 6.69282C47.2615 7.0718 48.0905 7.6667 48.7469 8.42831C49.4188 9.16298 49.934 10.0532 50.2924 11.0991C50.6508 12.145 50.8299 13.3133 50.8295 14.604V15.4633C50.8295 15.6514 50.7545 15.8319 50.6209 15.965C50.4874 16.098 50.3063 16.1728 50.1175 16.1728H40.0167C39.5648 16.1728 39.2231 16.591 39.3951 17.0075C39.6253 17.5737 39.9875 18.0772 40.4517 18.4762C41.124 19.0323 41.9526 19.3103 42.9376 19.3103C43.7656 19.3103 44.4598 19.1323 45.0202 18.7763C45.4075 18.5241 45.7623 18.2255 46.0767 17.8872C46.3444 17.6006 46.7858 17.5286 47.1033 17.7597L49.4618 19.4782ZM45.7909 12.7679C45.8132 11.9229 45.5332 11.1997 44.9509 10.5984C44.3686 9.99709 43.6184 9.69663 42.7004 9.69702C42.1408 9.69702 41.6483 9.78613 41.223 9.96434C40.8147 10.1313 40.4394 10.3689 40.1142 10.6663C39.8184 10.9402 39.5791 11.269 39.4098 11.6343C39.252 11.9932 39.1609 12.3777 39.141 12.7691L45.7909 12.7679Z" fill="#FF5050"/>
    <path d="M54.2285 7.2016C54.2285 7.10841 54.247 7.01612 54.2828 6.93003C54.3186 6.84395 54.3711 6.76574 54.4373 6.6999C54.5035 6.63405 54.5821 6.58185 54.6685 6.5463C54.7549 6.51074 54.8476 6.49251 54.9411 6.49267H58.3544C58.5431 6.49267 58.724 6.56736 58.8574 6.70031C58.9909 6.83326 59.0658 7.01358 59.0658 7.2016V8.65691C59.0658 8.66236 59.0669 8.66776 59.069 8.6728C59.0711 8.67784 59.0741 8.68242 59.078 8.68627C59.0819 8.69013 59.0865 8.69319 59.0915 8.69528C59.0966 8.69736 59.102 8.69844 59.1075 8.69844C59.1152 8.69846 59.1227 8.69634 59.1293 8.69231C59.1358 8.68827 59.1411 8.6825 59.1445 8.67563C59.3216 8.34291 59.5438 8.03606 59.8048 7.76372C60.1119 7.43925 60.4623 7.15839 60.8461 6.92903C61.278 6.67204 61.7407 6.47022 62.2232 6.3283C62.7683 6.16827 63.3342 6.08943 63.9025 6.09433C65.1794 6.09433 66.2095 6.29457 66.993 6.69505C67.7756 7.07331 68.3802 7.60735 68.8067 8.29718C69.2544 8.98739 69.5567 9.79966 69.7136 10.734C69.8757 11.7383 69.9543 12.7543 69.9484 13.7715V22.0062C69.9485 22.0993 69.9301 22.1915 69.8944 22.2776C69.8587 22.3636 69.8063 22.4418 69.7402 22.5076C69.6741 22.5735 69.5957 22.6257 69.5093 22.6613C69.423 22.6969 69.3304 22.7152 69.237 22.7151H65.6241C65.5307 22.7152 65.4381 22.6969 65.3517 22.6613C65.2653 22.6257 65.1868 22.5735 65.1207 22.5077C65.0546 22.4418 65.0021 22.3637 64.9663 22.2776C64.9305 22.1916 64.9121 22.0993 64.9121 22.0062V14.7706C64.9121 14.3026 64.8898 13.8242 64.8452 13.3352C64.8294 12.853 64.7271 12.3775 64.5429 11.9313C64.393 11.518 64.1241 11.1578 63.7699 10.896C63.4341 10.6293 62.9416 10.4959 62.2924 10.4959C61.6432 10.4959 61.1169 10.6182 60.7135 10.8627C60.3175 11.0794 59.9918 11.404 59.7743 11.7986C59.564 12.2055 59.4275 12.6463 59.371 13.1006C59.3028 13.6096 59.2693 14.1226 59.2707 14.6361V22.0062C59.2707 22.0993 59.2522 22.1916 59.2165 22.2776C59.1807 22.3637 59.1282 22.4418 59.0621 22.5077C58.996 22.5735 58.9175 22.6257 58.8311 22.6613C58.7447 22.6969 58.6521 22.7152 58.5587 22.7151H54.9411C54.8476 22.7152 54.7551 22.6969 54.6687 22.6613C54.5823 22.6257 54.5038 22.5735 54.4377 22.5077C54.3716 22.4418 54.3191 22.3637 54.2833 22.2776C54.2475 22.1916 54.2291 22.0993 54.2291 22.0062L54.2285 7.2016Z" fill="#FF5050"/>
    <path d="M85.5072 11.1025C85.1949 11.4277 84.6555 11.3798 84.2881 11.1189C84.1527 11.0233 84.01 10.9384 83.8613 10.865C83.4193 10.622 82.9222 10.4958 82.4174 10.4983C81.1409 10.4983 80.1444 10.8765 79.4279 11.633C78.7333 12.3896 78.3862 13.3798 78.3866 14.6039C78.387 15.828 78.7341 16.8183 79.4279 17.5748C80.144 18.3313 81.1405 18.7095 82.4174 18.7095C82.9766 18.7095 83.4579 18.5871 83.8613 18.3422C84.0271 18.242 84.1865 18.1316 84.3385 18.0117C84.6667 17.7514 85.1527 17.7356 85.4421 18.038L87.7536 20.4514C88.0183 20.7275 88.0189 21.1662 87.7248 21.4119C87.0537 21.9718 86.277 22.3923 85.4403 22.6484C84.388 22.9604 83.3804 23.1164 82.4174 23.1164C81.2045 23.1235 79.9997 22.9202 78.8568 22.5157C77.7943 22.1357 76.8141 21.5578 75.9682 20.8129C75.1557 20.0478 74.5047 19.1286 74.0535 18.1094C73.5839 17.0635 73.3491 15.8952 73.3491 14.6045C73.3491 13.3137 73.5839 12.1454 74.0535 11.0996C74.4997 10.087 75.1516 9.17763 75.9682 8.4288C76.8069 7.66629 77.7886 7.0765 78.8568 6.69331C79.9997 6.28872 81.2045 6.08545 82.4174 6.09259C83.38 6.09259 84.3877 6.25949 85.4403 6.59329C86.2774 6.832 87.0553 7.24221 87.7242 7.79766C88.0177 8.04157 88.0177 8.48086 87.7536 8.75694L85.5072 11.1025Z" fill="#FF5050"/>
    <path d="M89.7866 14.604C89.7866 13.3132 90.0214 12.1449 90.491 11.0991C90.9372 10.0865 91.5891 9.17712 92.4057 8.42829C93.2444 7.66579 94.2261 7.07599 95.2942 6.69281C96.4372 6.28822 97.642 6.08494 98.8549 6.09208C100.057 6.08306 101.251 6.28645 102.381 6.69281C103.501 7.09329 104.464 7.67178 105.27 8.42829C106.103 9.16953 106.768 10.0803 107.218 11.0991C107.688 12.1449 107.923 13.3132 107.923 14.604C107.923 15.8947 107.688 17.063 107.218 18.1089C106.763 19.1343 106.099 20.0548 105.27 20.8124C104.464 21.5471 103.501 22.1147 102.381 22.5152C101.251 22.9215 100.057 23.1249 98.8549 23.1159C97.642 23.123 96.4372 22.9197 95.2942 22.5152C94.2318 22.1351 93.2516 21.5573 92.4057 20.8124C91.5932 20.0473 90.9422 19.1281 90.491 18.1089C90.0218 17.063 89.787 15.8947 89.7866 14.604ZM94.8252 14.604C94.8252 15.8284 95.1723 16.8187 95.8665 17.5748C96.5834 18.3313 97.5799 18.7096 98.856 18.7096C100.132 18.7096 101.117 18.3313 101.811 17.5748C102.528 16.8179 102.887 15.8277 102.886 14.604C102.886 13.3803 102.528 12.39 101.811 11.6331C101.118 10.8762 100.133 10.498 98.856 10.4984C97.5796 10.4987 96.5831 10.877 95.8665 11.6331C95.1723 12.3896 94.8252 13.3799 94.8252 14.604Z" fill="#FF5050"/>
    <path d="M111.229 6.99693C111.229 6.80885 111.304 6.62847 111.437 6.49543C111.57 6.36238 111.751 6.28756 111.94 6.28741H115.555C115.743 6.28741 115.925 6.36216 116.058 6.49522C116.192 6.62828 116.267 6.80875 116.267 6.99693V9.05412C116.267 9.06529 116.271 9.07601 116.279 9.0839C116.287 9.0918 116.298 9.09624 116.309 9.09624C116.317 9.09613 116.324 9.09401 116.33 9.09011C116.337 9.0862 116.342 9.08065 116.346 9.07401C116.881 8.08353 117.515 7.34535 118.248 6.85947C118.987 6.34785 119.916 6.09204 121.036 6.09204C121.33 6.09204 121.618 6.10315 121.91 6.12538C122.003 6.1324 122.094 6.14176 122.182 6.15346C122.501 6.19557 122.716 6.48102 122.716 6.80098V10.5773C122.716 11.0558 122.246 11.3962 121.774 11.3254C121.73 11.319 121.685 11.3131 121.641 11.3079C121.287 11.239 120.927 11.2053 120.566 11.2073C119.602 11.2073 118.841 11.3408 118.282 11.6079C117.746 11.8543 117.291 12.248 116.972 12.7427C116.68 13.2106 116.49 13.7782 116.4 14.4454C116.307 15.1759 116.262 15.9118 116.266 16.6483V22.0062C116.266 22.0994 116.248 22.1916 116.212 22.2777C116.176 22.3637 116.124 22.4419 116.057 22.5077C115.991 22.5736 115.913 22.6258 115.826 22.6614C115.74 22.697 115.648 22.7152 115.554 22.7152H111.939C111.751 22.7152 111.57 22.6405 111.436 22.5075C111.303 22.3746 111.228 22.1942 111.228 22.0062L111.229 6.99693Z" fill="#FF5050"/>
    <path d="M139.508 19.4782C139.833 19.7151 139.899 20.1754 139.622 20.4673C138.891 21.2339 138.016 21.85 137.046 22.2806C135.845 22.8301 134.538 23.1147 133.217 23.1147C132.004 23.1218 130.799 22.9185 129.657 22.5139C128.594 22.1341 127.614 21.5562 126.768 20.8112C125.955 20.0461 125.305 19.1269 124.853 18.1077C124.384 17.0618 124.149 15.8935 124.149 14.6028C124.149 13.312 124.384 12.1437 124.853 11.0979C125.299 10.0853 125.951 9.17592 126.768 8.42709C127.607 7.66446 128.588 7.07465 129.657 6.6916C130.799 6.28706 132.004 6.08378 133.217 6.09088C134.381 6.09088 135.434 6.29112 136.374 6.6916C137.307 7.07057 138.136 7.66548 138.792 8.42709C139.464 9.16176 139.979 10.052 140.338 11.0979C140.696 12.1437 140.875 13.312 140.875 14.6028V15.462C140.875 15.6501 140.8 15.8305 140.667 15.9635C140.533 16.0966 140.352 16.1714 140.163 16.1716H130.063C129.611 16.1716 129.269 16.5898 129.441 17.0063C129.671 17.5725 130.033 18.0759 130.498 18.475C131.17 19.0311 131.999 19.3091 132.984 19.3091C133.812 19.3091 134.506 19.1311 135.066 18.7751C135.453 18.5229 135.808 18.2243 136.123 17.886C136.39 17.5994 136.832 17.5274 137.149 17.7585L139.508 19.4782ZM135.837 12.7679C135.859 11.9228 135.579 11.1997 134.997 10.5983C134.415 9.99704 133.664 9.69658 132.746 9.69697C132.186 9.69697 131.694 9.78607 131.268 9.96428C130.86 10.1314 130.485 10.369 130.16 10.6662C129.865 10.9403 129.625 11.2691 129.456 11.6343C129.299 11.9934 129.208 12.3778 129.188 12.769L135.837 12.7679Z" fill="#FF5050"/>
  </g>
  <defs>
    <clipPath id="clip0_7_2679">
      <rect width="140.875" height="28" fill="white"/>
    </clipPath>
  </defs>
</svg>
