<svg width="18" height="18" viewBox="0 0 18 18" fill="none" xmlns="http://www.w3.org/2000/svg">
<path d="M7.125 7.5C8.57475 7.5 9.75 6.32475 9.75 4.875C9.75 3.42525 8.57475 2.25 7.125 2.25C5.67525 2.25 4.5 3.42525 4.5 4.875C4.5 6.32475 5.67525 7.5 7.125 7.5Z" fill="#727272" stroke="#727272" stroke-width="1.5" stroke-linecap="round" stroke-linejoin="round"/>
<path d="M12.2278 2.625C12.9902 3.08434 13.5 3.92013 13.5 4.875C13.5 5.82987 12.9902 6.66566 12.2278 7.125" stroke="#727272" stroke-width="1.5" stroke-linecap="round" stroke-linejoin="round"/>
<path d="M7.5 10.5H6.75C3.85051 10.5 1.5 12.8505 1.5 15.75H12.75C12.75 12.8505 10.3995 10.5 7.5 10.5Z" fill="#727272" stroke="#727272" stroke-width="1.5" stroke-linecap="round" stroke-linejoin="round"/>
<path d="M16.5 15.75V15.3C16.5 13.6199 16.5 12.7798 16.173 12.1381C15.8854 11.5736 15.4265 11.1146 14.862 10.827" stroke="#727272" stroke-width="1.5" stroke-linecap="round" stroke-linejoin="round"/>
</svg>
